<svg xmlns="http://www.w3.org/2000/svg" viewBox="0 0 512 512">
    <path fill="#ea7600" d="M214.7 239.3c-23.1 0-41.8 18.7-41.8 41.8s18.7 41.8 41.8 41.8 41.8-18.7 41.8-41.8-18.7-41.8-41.8-41.8zm0 66.3c-13.5 0-24.5-11-24.5-24.5s11-24.5 24.5-24.5 24.5 11 24.5 24.5-11 24.5-24.5 24.5z"/>
    <path fill="#ea7600" d="M502.8 266.4L378.9 36.2c-3.8-7.1-11.2-11.5-19.3-11.5H152.4c-8.1 0-15.5 4.4-19.3 11.5L9.2 266.4c-3.8 7.1-3.8 15.8 0 22.9l123.9 230.2c3.8 7.1 11.2 11.5 19.3 11.5h207.2c8.1 0 15.5-4.4 19.3-11.5l123.9-230.2c3.8-7.1 3.8-15.8 0-22.9zM359.6 466H152.4L28.5 277.8l123.9-188.2h207.2l123.9 188.2L359.6 466z"/>
</svg> 